<svg width="40" height="40" viewBox="0 0 40 40" fill="none" xmlns="http://www.w3.org/2000/svg">
<path fill-rule="evenodd" clip-rule="evenodd" d="M10.2775 5.44928C13.1554 3.52636 16.5388 2.5 20 2.5C24.6397 2.50529 29.0878 4.35074 32.3685 7.63148C35.6493 10.9122 37.4947 15.3603 37.5 20C37.5 23.4612 36.4737 26.8446 34.5507 29.7225C32.6278 32.6003 29.8947 34.8434 26.697 36.1679C23.4993 37.4924 19.9806 37.839 16.5859 37.1637C13.1913 36.4885 10.0731 34.8218 7.62564 32.3744C5.17822 29.9269 3.51151 26.8087 2.83627 23.4141C2.16102 20.0194 2.50758 16.5007 3.83212 13.303C5.15665 10.1053 7.39967 7.37221 10.2775 5.44928ZM28.1299 26.802C29.2971 27.9537 29.9651 29.5179 29.99 31.1575H29.9913C32.2581 29.1334 33.8566 26.4686 34.5752 23.5158C35.2938 20.5631 35.0986 17.4617 34.0155 14.6223C32.9323 11.783 31.0122 9.33958 28.5095 7.61571C26.0069 5.89183 23.0396 4.96878 20.0006 4.96878C16.9617 4.96878 13.9944 5.89183 11.4917 7.61571C8.98903 9.33958 7.06898 11.783 5.98581 14.6223C4.90263 17.4617 4.70743 20.5631 5.42605 23.5158C6.14467 26.4686 7.74321 29.1334 10.01 31.1575C10.0349 29.5179 10.7029 27.9537 11.8701 26.802C13.0373 25.6502 14.6102 25.0031 16.25 25H23.75C25.3898 25.0031 26.9627 25.6502 28.1299 26.802ZM16.5277 11.0533C17.5555 10.3666 18.7639 10 20 10C21.6576 10 23.2473 10.6585 24.4194 11.8306C25.5915 13.0027 26.25 14.5924 26.25 16.25C26.25 17.4861 25.8834 18.6945 25.1967 19.7223C24.5099 20.7501 23.5338 21.5512 22.3918 22.0242C21.2497 22.4973 19.9931 22.6211 18.7807 22.3799C17.5683 22.1388 16.4547 21.5435 15.5806 20.6694C14.7065 19.7953 14.1113 18.6817 13.8701 17.4693C13.6289 16.2569 13.7527 15.0003 14.2258 13.8582C14.6988 12.7162 15.4999 11.7401 16.5277 11.0533Z" fill="#CDD6DF"/>
</svg>