<svg width="20" height="20" viewBox="0 0 20 20" fill="none" xmlns="http://www.w3.org/2000/svg">
<g clip-path="url(#clip0_6317_3183)">
<path d="M17 3H3C2.73478 3 2.48043 3.10536 2.29289 3.29289C2.10536 3.48043 2 3.73478 2 4V16C2 16.2652 2.10536 16.5196 2.29289 16.7071C2.48043 16.8946 2.73478 17 3 17H17C17.2652 17 17.5196 16.8946 17.7071 16.7071C17.8946 16.5196 18 16.2652 18 16V4C18 3.73478 17.8946 3.48043 17.7071 3.29289C17.5196 3.10536 17.2652 3 17 3ZM3 16V4H17V16H3Z" fill="#525252"/>
<path d="M5.5 8C5.79667 8 6.08668 7.91203 6.33335 7.7472C6.58003 7.58238 6.77229 7.34811 6.88582 7.07403C6.99935 6.79994 7.02906 6.49834 6.97118 6.20737C6.9133 5.91639 6.77044 5.64912 6.56066 5.43934C6.35088 5.22956 6.08361 5.0867 5.79263 5.02882C5.50166 4.97094 5.20006 5.00065 4.92597 5.11418C4.65189 5.22771 4.41762 5.41997 4.2528 5.66665C4.08797 5.91332 4 6.20333 4 6.5C4 6.89783 4.15804 7.27936 4.43934 7.56066C4.72064 7.84196 5.10217 8 5.5 8ZM5.5 5.7C5.65843 5.69901 5.81359 5.74509 5.94581 5.83239C6.07803 5.91969 6.18134 6.04428 6.24266 6.19037C6.30398 6.33646 6.32053 6.49747 6.29023 6.65299C6.25993 6.8085 6.18414 6.95151 6.07246 7.06389C5.96078 7.17628 5.81824 7.25297 5.66292 7.28424C5.5076 7.31552 5.34649 7.29997 5.20002 7.23957C5.05355 7.17917 4.92831 7.07664 4.84018 6.94497C4.75205 6.81331 4.705 6.65844 4.705 6.5C4.70631 6.28956 4.79049 6.08811 4.9393 5.9393C5.08811 5.79049 5.28956 5.70631 5.5 5.705V5.7Z" fill="#525252"/>
<path d="M12.402 9.134L9.71096 11.6223L7.71761 9.77911C7.62424 9.69329 7.49793 9.64511 7.36628 9.64511C7.23463 9.64511 7.10832 9.69329 7.01495 9.77911L4 12.6038V13.9078L7.38372 10.779L9.02326 12.272L7.15448 14H8.52492L12.7359 10.1063L16 13.1107V11.8112L13.1047 9.134C13.0113 9.04817 12.885 9 12.7533 9C12.6217 9 12.4954 9.04817 12.402 9.134Z" fill="#525252"/>
</g>
<defs>
<clipPath id="clip0_6317_3183">
<rect width="20" height="20" fill="white"/>
</clipPath>
</defs>
</svg>