<svg data-v-29102edb="" width="20" height="20" viewBox="0 0 20 20" fill="none" xmlns="http://www.w3.org/2000/svg"><path data-v-29102edb="" d="M4.9 3.97934C4.39609 3.97934 3.91282 4.17538 3.5565 4.52433C3.20018 4.87329 3 5.34657 3 5.84007V11.912C3 12.4055 3.20018 12.8787 3.5565 13.2277C3.91282 13.5766 4.39609 13.7727 4.9 13.7727H6.2V15.9261L10.6412 13.7727H15.1C15.6039 13.7727 16.0872 13.5766 16.4435 13.2277C16.7998 12.8787 17 12.4055 17 11.912V5.84007C17 5.34657 16.7998 4.87329 16.4435 4.52433C16.0872 4.17538 15.6039 3.97934 15.1 3.97934H4.9ZM2 5.84007C2 5.08684 2.30553 4.36446 2.84939 3.83184C3.39325 3.29922 4.13087 3 4.9 3H15.1C15.8691 3 16.6068 3.29922 17.1506 3.83184C17.6945 4.36446 18 5.08684 18 5.84007V11.912C18 12.6652 17.6945 13.3876 17.1506 13.9202C16.6068 14.4528 15.8691 14.752 15.1 14.752H10.9588L6.5 16.9205C6.5 16.9205 5.2 17.4176 5.2 15.9261V14.752H4.9C4.13087 14.752 3.39325 14.4528 2.84939 13.9202C2.30553 13.3876 2 12.6652 2 11.912V5.84007Z" fill="#525252"></path></svg>