<svg width="28" height="28" viewBox="0 0 28 28" fill="none" xmlns="http://www.w3.org/2000/svg"><path fill-rule="evenodd" clip-rule="evenodd" d="M26.0015 4H7.38079V21.0833C7.38079 22.4167 6.27734 23.5833 5.72562 24H23.9325C25.5877 23.3333 26.0015 22.0556 26.0015 21.5V4ZM15.1043 9.44078H10.6905V7.44078H15.1043V9.44078ZM17.4146 7.44078H18.4146H21.7249H22.7249V8.44078V12.8852V13.8852H21.7249H18.4146H17.4146V12.8852V8.44078V7.44078ZM19.4146 9.44078V11.8852H20.7249V9.44078H19.4146ZM15.1043 13.8852H10.6905V11.8852H15.1043V13.8852ZM22.8284 18.3297H10.6905V16.3297H22.8284V18.3297ZM5.51437 22.425C5.90045 21.9506 6.11734 21.3072 6.11734 20.6362L6.13793 8.99932H2V20.6362C2 21.3072 2.2169 21.9506 2.60297 22.425C2.98905 22.8995 3.51268 23.166 4.05867 23.166C4.60467 23.166 5.1283 22.8995 5.51437 22.425Z" fill="#FEFEFF"></path></svg>