<svg data-v-2ffc3a98="" width="28" height="28" viewBox="0 0 28 28" fill="none" xmlns="http://www.w3.org/2000/svg"><path data-v-2ffc3a98="" d="M11.5 23.5H16.5C16.5 24.163 16.2366 24.7989 15.7678 25.2678C15.2989 25.7366 14.663 26 14 26C13.337 26 12.7011 25.7366 12.2322 25.2678C11.7634 24.7989 11.5 24.163 11.5 23.5Z" fill="#FEFEFF"></path> <path data-v-2ffc3a98="" d="M23.9695 20.4579C23.6256 20.2165 23.3453 19.8953 23.1528 19.5219C22.9603 19.1484 22.8613 18.7338 22.8642 18.3137V13.0526C22.8628 11.0935 22.2107 9.19034 21.0104 7.64196C19.8101 6.09358 18.1296 4.98768 16.2326 4.49789C16.2435 4.40241 16.2435 4.30601 16.2326 4.21053C16.2326 3.62426 15.9997 3.062 15.5852 2.64745C15.1706 2.23289 14.6084 2 14.0221 2C13.4358 2 12.8736 2.23289 12.459 2.64745C12.0445 3.062 11.8116 3.62426 11.8116 4.21053C11.8007 4.30601 11.8007 4.40241 11.8116 4.49789C9.91467 4.98768 8.23413 6.09358 7.03384 7.64196C5.83354 9.19034 5.18147 11.0935 5.18001 13.0526V18.2695C5.18441 18.7076 5.07837 19.1398 4.87168 19.5261C4.66498 19.9125 4.3643 20.2405 3.99738 20.48C3.84378 20.5812 3.71785 20.719 3.631 20.8812C3.54415 21.0433 3.49912 21.2245 3.50001 21.4084V21.8947C3.50001 22.1879 3.61646 22.469 3.82374 22.6763C4.03101 22.8836 4.31214 23 4.60528 23H23.3947C23.6879 23 23.969 22.8836 24.1763 22.6763C24.3836 22.469 24.5 22.1879 24.5 21.8947V21.3753C24.4955 21.1902 24.4446 21.0091 24.3519 20.8489C24.2592 20.6886 24.1277 20.5541 23.9695 20.4579Z" fill="#FEFEFF"></path></svg>