<svg width="28" height="28" viewBox="0 0 28 28" fill="none" xmlns="http://www.w3.org/2000/svg"><path d="M7.87501 11.375H11.375V16.625H7.87501V11.375ZM25.375 6.125V23.625C25.3759 23.7743 25.3381 23.9213 25.2652 24.0517C25.1924 24.182 25.087 24.2913 24.9594 24.3688C24.8328 24.4483 24.6879 24.4942 24.5385 24.5018C24.3892 24.5095 24.2404 24.4787 24.1063 24.4125L21 22.8484L17.8938 24.4125C17.7705 24.4701 17.6361 24.5 17.5 24.5C17.3639 24.5 17.2295 24.4701 17.1063 24.4125L14 22.8484L10.8938 24.4125C10.7709 24.4716 10.6363 24.5023 10.5 24.5023C10.3637 24.5023 10.2291 24.4716 10.1063 24.4125L7.00001 22.8484L3.89376 24.4125C3.75968 24.4787 3.61085 24.5095 3.4615 24.5018C3.31215 24.4942 3.16725 24.4483 3.04064 24.3688C2.913 24.2913 2.80763 24.182 2.73478 24.0517C2.66194 23.9213 2.62412 23.7743 2.62502 23.625V6.125C2.62502 5.66087 2.80939 5.21575 3.13758 4.88756C3.46577 4.55937 3.91089 4.375 4.37502 4.375H23.625C24.0891 4.375 24.5343 4.55937 24.8624 4.88756C25.1906 5.21575 25.375 5.66087 25.375 6.125ZM13.125 10.5C13.125 10.2679 13.0328 10.0454 12.8687 9.88128C12.7046 9.71719 12.4821 9.625 12.25 9.625H7.00001C6.76795 9.625 6.54539 9.71719 6.3813 9.88128C6.2172 10.0454 6.12502 10.2679 6.12502 10.5V17.5C6.12502 17.7321 6.2172 17.9546 6.3813 18.1187C6.54539 18.2828 6.76795 18.375 7.00001 18.375H12.25C12.4821 18.375 12.7046 18.2828 12.8687 18.1187C13.0328 17.9546 13.125 17.7321 13.125 17.5V10.5ZM21.875 15.75C21.875 15.5179 21.7828 15.2954 21.6187 15.1313C21.4546 14.9672 21.2321 14.875 21 14.875H15.75C15.5179 14.875 15.2954 14.9672 15.1313 15.1313C14.9672 15.2954 14.875 15.5179 14.875 15.75C14.875 15.9821 14.9672 16.2046 15.1313 16.3687C15.2954 16.5328 15.5179 16.625 15.75 16.625H21C21.2321 16.625 21.4546 16.5328 21.6187 16.3687C21.7828 16.2046 21.875 15.9821 21.875 15.75ZM21.875 12.25C21.875 12.0179 21.7828 11.7954 21.6187 11.6313C21.4546 11.4672 21.2321 11.375 21 11.375H15.75C15.5179 11.375 15.2954 11.4672 15.1313 11.6313C14.9672 11.7954 14.875 12.0179 14.875 12.25C14.875 12.4821 14.9672 12.7046 15.1313 12.8687C15.2954 13.0328 15.5179 13.125 15.75 13.125H21C21.2321 13.125 21.4546 13.0328 21.6187 12.8687C21.7828 12.7046 21.875 12.4821 21.875 12.25Z" fill="#FEFEFF"></path></svg>