<svg data-v-3f5c8e5f="" width="24" height="24" viewBox="0 0 24 24" fill="none" xmlns="http://www.w3.org/2000/svg"><path data-v-3f5c8e5f="" d="M21 19.9648L16.8301 15.7949C18.111 14.2478 18.7469 12.2668 18.6057 10.2632C18.4645 8.25958 17.557 6.38735 16.0716 5.03524C14.5863 3.68313 12.6373 2.95504 10.6293 3.00215C8.62125 3.04926 6.70851 3.86796 5.28823 5.28823C3.86796 6.70851 3.04926 8.62125 3.00215 10.6293C2.95504 12.6373 3.68313 14.5863 5.03524 16.0716C6.38735 17.557 8.25958 18.4645 10.2632 18.6057C12.2668 18.7469 14.2478 18.111 15.7949 16.8301L19.9648 21L21 19.9648ZM6.35154 15.3066C5.46347 14.419 4.85859 13.288 4.6134 12.0566C4.3682 10.8252 4.49372 9.54868 4.97406 8.38861C5.4544 7.22853 6.268 6.23696 7.31194 5.53933C8.35588 4.84169 9.58326 4.46932 10.8389 4.46932C12.0944 4.46932 13.3218 4.84169 14.3658 5.53933C15.4097 6.23696 16.2233 7.22853 16.7036 8.38861C17.184 9.54868 17.3095 10.8252 17.0643 12.0566C16.8191 13.288 16.2142 14.419 15.3262 15.3066C14.7371 15.8998 14.0364 16.3706 13.2646 16.6919C12.4928 17.0131 11.6651 17.1785 10.8291 17.1785C9.99309 17.1785 9.16534 17.0131 8.39353 16.6919C7.62173 16.3706 6.9211 15.8998 6.33201 15.3066H6.35154Z" fill="#11161b"></path></svg>