<svg width="24" height="24" viewBox="0 0 24 24" fill="none" xmlns="http://www.w3.org/2000/svg">
<path fill-rule="evenodd" clip-rule="evenodd" d="M20.295 13.8828L21.7842 15.1087C21.9559 15.2495 22.0719 15.4467 22.1114 15.6652C22.1509 15.8837 22.1114 16.1091 21.9998 16.301L20.4713 18.9488C20.3608 19.1415 20.1853 19.2884 19.9763 19.3634C19.7673 19.4384 19.5384 19.4365 19.3306 19.3581L17.5229 18.6808C16.5813 19.5316 15.4705 20.1736 14.2633 20.5648L13.9462 22.4666C13.9103 22.6858 13.7975 22.885 13.6281 23.0286C13.4586 23.1721 13.2436 23.2506 13.0215 23.25H9.9642C9.74212 23.2506 9.52709 23.1721 9.35764 23.0285C9.1882 22.8849 9.07541 22.6857 9.0395 22.4666L8.72253 20.5648C7.51531 20.1736 6.40446 19.5316 5.46284 18.6808L3.65525 19.358C3.44749 19.4365 3.21857 19.4384 3.00952 19.3634C2.80048 19.2884 2.62497 19.1414 2.51445 18.9488L0.985767 16.3012C0.87427 16.1091 0.83477 15.8837 0.874339 15.6652C0.913908 15.4467 1.02996 15.2494 1.20172 15.1087L2.69094 13.8828C2.42694 12.6415 2.42694 11.3585 2.69094 10.1172L1.20186 8.89139C1.03008 8.7507 0.91399 8.55344 0.874394 8.33496C0.834798 8.11647 0.87428 7.89102 0.985767 7.69899L2.51441 5.05116C2.62491 4.85855 2.80039 4.71158 3.00941 4.63658C3.21842 4.56159 3.44731 4.56347 3.65506 4.64189L5.4628 5.31919C6.40441 4.46844 7.51527 3.82639 8.72249 3.43519L9.03945 1.53338C9.07538 1.31422 9.18817 1.11502 9.35763 0.971467C9.52708 0.827918 9.74212 0.749407 9.9642 0.750003H13.0215C13.2436 0.749399 13.4586 0.827913 13.6281 0.971473C13.7975 1.11503 13.9103 1.31425 13.9462 1.53343L14.2634 3.43519C15.4706 3.8264 16.5815 4.46845 17.5231 5.31919L19.3306 4.64199C19.5384 4.56351 19.7673 4.5616 19.9764 4.63659C20.1854 4.71157 20.3609 4.85856 20.4714 5.05121L22.0001 7.69885C22.1116 7.89086 22.1511 8.11631 22.1116 8.3348C22.072 8.5533 21.956 8.75057 21.7842 8.8913L20.295 10.1172C20.559 11.3585 20.559 12.6415 20.295 13.8828ZM17.1555 16.9413L19.4106 17.7862L20.4627 15.9638L18.6051 14.4346L18.7317 13.9671C19.0797 12.6788 19.0797 11.3212 18.7317 10.0329L18.6051 9.56546L20.4627 8.03616L19.4105 6.2138L17.1554 7.05868L16.8139 6.71489C15.8744 5.76791 14.6992 5.08872 13.4096 4.74741L12.9409 4.62385L12.5451 2.25H10.4407L10.0451 4.62385L9.57631 4.74741C8.28673 5.08872 7.11156 5.76791 6.17202 6.71489L5.83053 7.05868L3.57542 6.2138L2.52327 8.03621L4.38088 9.56546L4.25431 10.0329C3.90626 11.3212 3.90626 12.6788 4.25431 13.9671L4.38088 14.4346L2.52327 15.9638L3.57519 17.7862L5.83067 16.9413L6.17216 17.2851C7.1117 18.2321 8.28687 18.9113 9.57645 19.2526L10.0452 19.3762L10.4409 21.75H12.5451L12.941 19.3762L13.4098 19.2526C14.6993 18.9113 15.8745 18.2321 16.814 17.2851L17.1555 16.9413ZM9.20046 8.57019C9.87881 8.11693 10.6763 7.875 11.4922 7.875C12.5858 7.87624 13.6343 8.31123 14.4076 9.08455C15.1809 9.85787 15.6159 10.9064 15.6172 12C15.6172 12.8158 15.3752 13.6134 14.922 14.2917C14.4687 14.9701 13.8245 15.4988 13.0707 15.811C12.317 16.1232 11.4876 16.2049 10.6874 16.0457C9.88727 15.8866 9.15226 15.4937 8.57537 14.9168C7.99848 14.3399 7.60561 13.6049 7.44645 12.8047C7.28729 12.0046 7.36897 11.1752 7.68119 10.4214C7.9934 9.66768 8.52211 9.02345 9.20046 8.57019ZM10.0338 14.1826C10.4655 14.471 10.973 14.625 11.4922 14.625C12.1881 14.6242 12.8554 14.3474 13.3475 13.8553C13.8396 13.3632 14.1164 12.6959 14.1172 12C14.1172 11.4808 13.9632 10.9733 13.6748 10.5416C13.3863 10.1099 12.9764 9.77349 12.4967 9.57481C12.0171 9.37613 11.4893 9.32415 10.9801 9.42544C10.4709 9.52672 10.0031 9.77673 9.63603 10.1438C9.26892 10.511 9.01891 10.9787 8.91763 11.4879C8.81634 11.9971 8.86832 12.5249 9.067 13.0045C9.26568 13.4842 9.60213 13.8942 10.0338 14.1826Z" fill="#525252"/>
</svg>
