<svg data-v-29102edb="" width="20" height="20" viewBox="0 0 20 20" fill="none" xmlns="http://www.w3.org/2000/svg"><path data-v-29102edb="" d="M3.7432 17H2.00001L2.00001 10.6157C1.99841 9.99742 2.13608 9.38733 2.402 8.83417C2.76304 8.00661 3.34584 7.30452 4.08075 6.81179C4.81567 6.31906 5.67162 6.05652 6.54634 6.05556H11.1113V3H12.5274L18 8.68437L12.508 14.3889H11.1113V11.3333H8.14241C7.5214 11.3349 6.91782 11.5467 6.42319 11.9367C5 13.5 4.46279 15.4789 3.7432 17ZM6.54634 7.16667C5.87586 7.16742 5.21984 7.3691 4.65698 7.74752C4.09413 8.12596 3.64836 8.66504 3.37317 9.30008L3.36341 9.32142C3.16908 9.72292 3.06847 10.1663 3.06973 10.6157V16C4 13.5 4.73607 11.8732 5.77689 11.0525C6.45747 10.5158 7.28795 10.2243 8.14241 10.2222H12.181V13.1571L16.4872 8.68437L12.181 4.2116V7.16667H6.54634Z" fill="#525252"></path></svg>